/* XPM */
static char *east_xpm[] = {
"16 16 2 1",
"  c #00FF00",
". c #222222",
".              .",
" .            . ",
"  .          .  ",
"   .        .   ",
"    .      .    ",
"     .    .     ",
"      .  .      ",
"       ..       ",
"       ..       ",
"      .  .      ",
"     .    .     ",
"    .      .    ",
"   .        .   ",
"  .          .  ",
" .            . ",
".              ."
};