/* XPM */
static char *west_xpm[] = {
"16 16 2 1",
"  c #FFFF00",
". c #333333",
"                ",
"................",
"                ",
"................",
"                ",
"................",
"                ",
"................",
"                ",
"................",
"                ",
"................",
"                ",
"................",
"                ",
"................"
};