/* XPM */
static char *_14cut[] = {
/* columns rows colors chars-per-pixel */
"105 94 42 1 ",
"  c #9C8900",
". c #9E8B00",
"X c #A89400",
"o c #AA9500",
"O c #AC9700",
"+ c #AE9900",
"@ c #B09B00",
"# c #B29C00",
"$ c #B49E00",
"% c #B6A000",
"& c #BAA300",
"* c #C0A900",
"= c #C4AC00",
"- c #CCB300",
"; c #CEB500",
": c #D0B700",
"> c #D2B800",
", c #D4BA00",
"< c #F0D300",
"1 c #F2D500",
"2 c #F4D600",
"3 c #F6D800",
"4 c #F8DA00",
"5 c #FADC00",
"6 c #FCDD00",
"7 c #FFE000",
"8 c #FFE003",
"9 c #FFE105",
"0 c #FFE107",
"q c #FFE109",
"w c #FFE10B",
"e c #FFE20D",
"r c #FFE20F",
"t c #FFE211",
"y c #FFE213",
"u c #FFE315",
"i c #FFE317",
"p c #FFE31B",
"a c #FFE41D",
"s c #FFE41F",
"d c #FFFAB2",
"fc #000000",
/* pixels */
"fffffffffffffffffffffffffffffffffffffffffffffffffffffffffffffffffffffffffffffffffffffffffffffff+;;fffffff",
"fffffffffffffffffffffffffffffffffffffffffffffffffffffffffffffffffffffffffffffffffffffffffffffff1Offffffff",
"ffffffffffffffffffffffffffffffffffffffffffffffffffffffffffffffffffffffffffffffffffffffffffffff3OOffffffff",
"fffffffffffffffffffffffffffffffffffffffffffffffffffffffffffffffffffffffffffffffffffffffffffff33+fffffffff",
"ffffffffffffffffffffffffffffffffffffffffffffffffffffffffffffffffffffffffffffffffffffffffffff33$ffffffffff",
"fffffffffffffffffffffffffffffffffffffffffffffffffffffffffffffffffffffffffffffffffffffffff%12%%fffffffffff",
"ffffffffffffffffffffffffffffffffffffffffffffffffffffffffffffffffffffffffffffffffffffffff@212%ffffffffffff",
"fffffffffffffffffffffffffffffffffffffffffffffffffffffffffffffffffffffffffffffffffffffff@@21%%ffffffffffff",
"ffffffffffffffffffffffffffffffffffffffffffffffffffffffffffffffffffffffffffffffffffffff$@34%%fffffffffffff",
"fffffffffffffffffffffffffffffffffffffffffffffffffffffffffffffffffffffffffffffffffffff3$333%ffffffffffffff",
"fffffffffffffffffffffffffffffffffffffffffffffffffffffffffffffffffffffffffffffffffff$334433fffffffffffffff",
"ffffffffffffffffffffffffffffffffffffffffffffffffffffffffffffffffffffffffffffffffff$$34444ffffffffffffffff",
"fffffffffffffffffffffffffffffffffffffffffffffffffffffffffffffffffffffffffffffffff$$64443fffffffffffffffff",
"ffffffffffffffffffffffffffffffffffffffffffffffffffffffffffffffffffffffffffffffffe$86554ffffffffffffffffff",
"fffffffffffffffffffffffffffffffffffffffffffffffffffffffffffffffffffffffffffffffewd8865fffffffffffffffffff",
"fffffffffffffffffffffffffffffffffffffffffffffffffffffffffffffffffffffffffffffffewd88fffffffffffffffffffff",
"fffffffffffffffffffffffffffffffffffffffffffffffffffffffffffffffffffffffffffffteedw8ffffffffffffffffffffff",
"ffffffffffffffffffffffffffffffffffffffffffffffffffffffffffffffffffffffffffffeeedd9Offffffffffffffffffffff",
"ffffffffffffffffffffffffffffffffffffffffffffffffffffffffffffffffffffffffffftedddd9+ffffffffffffffffffffff",
"fffffffffffffffffffffffffffffffffffffffffffffffffffffffffffffffffffffffffiiedddd9%fffffffffffffffffffffff",
"ffffffffffffffffffffffffffffffffffffffffffffffffffffffffffffffffffffffffpttdddd9effffffffffffffffffffffff",
"fffffffffffffffffffffffffffffffffffffffffffffffffffffffffffffffffffffffapdddddw5fffffffffffffffffffffffff",
"fffffffffffffffffffffffffffffffffffffffffffffffffffffffffffffffffffff-aaddddde1ffffffffffffffffffffffffff",
"ffffffffffffffffffffffffffffffffffffffffffffffffffffffffffffffffffff-aaddddd1<+ffffffffffffffffffffffffff",
"fffffffffffffffffffffffffffffffffffffffffffffffffffffffffffffffffff-ipdddddd@@+ffffffffffffffffffffffffff",
"ffffffffffffffffffffffffffffffffffffffffffffffffffffffffffffffffff-edddddd88@@fffffffffffffffffffffffffff",
"fffffffffffffffffffffffffffffffffffffffffffffffffffffffffffffffff-edddddd55Offfffffffffffffffffffffffffff",
"ffffffffffffffffffffffffffffffffffffffffffffffffffffffffffffffff--dddddd34Offffffffffffffffffffffffffffff",
"fffffffffffffffffffffffffffffffffffffffffffffffffffffffffffffff--dddddd43%fffffffffffffffffffffffffffffff",
"ffffffffffffffffffffffffffffffffffffffffffffffffffffffffffffff--ddddddw5Offffffffffffffffffffffffffffffff",
"fffffffffffffffffffffffffffffffffffffffffffffffffffffffffffff--ddddddwe%fffffffffffffffffffffffffffffffff",
"ffffffffffffffffffffffffffffffffffffffffffffffffffffffffffff-tdddddd8Offfffffffffffffffffffffffffffffffff",
"fffffffffffffffffffffffffffffffffffffffffffffffffffffffffffetdddddde@ffffffffffffffffffffffffffffffffffff",
"ffffffffffffffffffffffffffffffffffffffffffffffffffffffffffttddddddd+@ffffffffffffffffffffffffffffffffffff",
"ffffffffffffffffffffffffffffffffffffffffffffffffffffffff-tedddddddXOfffffffffffffffffffffffffffffffffffff",
"fffffffffffffffffffffffffffffffffffffffffffffffffffffff-tedddddddXXffffffffffffffffffffffffffffffffffffff",
"ffffffffffffffffffffffffffffffffffffffffffffffffffffff-eddddddddXXfffffffffffffffffffffffffffffffffffffff",
"fffffffffffffffffffffffffffffffffffffffffffffffffffff-tddddddddeXffffffffffffffffffffffffffffffffffffffff",
"ffffffffffffffffffffffffffffffffffffffffffffffffffff--ddddddddeXfffffffffffffffffffffffffffffffffffffffff",
"fffffffffffffffffffffffffffffffffffffffffffffffffff--dddddddeeXffffffffffffffffffffffffffffffffffffffffff",
"ffffffffffffffffffffffffffffffffffffffffffffffffff--dddddddeeXfffffffffffffffffffffffffffffffffffffffffff",
"fffffffffffffffffffffffffffffffffffffffffffffffff--dddddddtOfffffffffffffffffffffffffffffffffffffffffffff",
"fffffffffffffffffffffffffffffffffffffffffffffffff-tddddddtOffffffffffffffffffffffffffffffffffffffffffffff",
"ffffffffffffffffffffffffffffffffffffffffffffffff;eddddddt%fffffffffffffffffffffffffffffffffffffffffffffff",
"fffffffffffffffffffffffffffffffffffffffffffffff;tdddddde&%fffffffffffffffffffffffffffffffffffffffffffffff",
"ffffffffffffffffffffffffffffffffffffffffffffff;eddddddt=*ffffffffffffffffffffffffffffffffffffffffffffffff",
"ffffffffffffffffffffffffffffffffffffffffffff;eedddddd;;ffffffffffffffffffffffffffffffffffffffffffffffffff",
"fffffffffffffffffffffffffffffffffffffffffffeeedddddd::fffffffffffffffffffffffffffffffffffffffffffffffffff",
"ffffffffffffffffffffffffffffffffffffffffffeeddddddde:ffffffffffffffffffffffffffffffffffffffffffffffffffff",
"ffffffffffffffffffffffffffffffffffffffff--eddddddde;fffffffffffffffffffffffffffffffffffffffffffffffffffff",
"fffffffffffffffffffffffffffffffffffffff--tddddddde-ffffffffffffffffffffffffffffffffffffffffffffffffffffff",
"ffffffffffffffffffffffffffffffffffffff--dddddddde-fffffffffffffffffffffffffffffffffffffffffffffffffffffff",
"fffffffffffffffffffffffffffffffffffff--dddddddde-ffffffffffffffffffffffffffffffffffffffffffffffffffffffff",
"fffffffffffffffffffffffffffffffffffff-eddddddde-fffffffffffffffffffffffffffffffffffffffffffffffffffffffff",
"ffffffffffffffffffffffffffffffffffff;tdddddddt>ffffffffffffffffffffffffffffffffffffffffffffffffffffffffff",
"fffffffffffffffffffffffffffffffffff;eddddddde-fffffffffffffffffffffffffffffffffffffffffffffffffffffffffff",
"ffffffffffffffffffffffffffffffffff;eddddddd;;-fffffffffffffffffffffffffffffffffffffffffffffffffffffffffff",
"fffffffffffffffffffffffffffffffff;eddddddd::fffffffffffffffffffffffffffffffffffffffffffffffffffffffffffff",
"ffffffffffffffffffffffffffffffff;eddddddd::ffffffffffffffffffffffffffffffffffffffffffffffffffffffffffffff",
"fffffffffffffffffffffffffffffff;edddddde>>fffffffffffffffffffffffffffffffffffffffffffffffffffffffffffffff",
"ffffffffffffffffffffffffffffff-eddddddee>ffffffffffffffffffffffffffffffffffffffffffffffffffffffffffffffff",
"ffffffffffffffffffffffffffffff-eddddde,ffffffffffffffffffffffffffffffffffffffffffffffffffffffffffffffffff",
"ffffffffffffffffffffffffffff-etddddde,fffffffffffffffffffffffffffffffffffffffffffffffffffffffffffffffffff",
"ffffffffffffffffffffffffffff.eddddde,ffffffffffffffffffffffffffffffffffffffffffffffffffffffffffffffffffff",
"fffffffffffffffffffffffffffwwddddee,fffffffffffffffffffffffffffffffffffffffffffffffffffffffffffffffffffff",
"ffffffffffffffffffffffffffwwddddee,ffffffffffffffffffffffffffffffffffffffffffffffffffffffffffffffffffffff",
"ffffffffffffffffffffffff.wwdddde>ffffffffffffffffffffffffffffffffffffffffffffffffffffffffffffffffffffffff",
"fffffffffffffffffffffff wedddde,fffffffffffffffffffffffffffffffffffffffffffffffffffffffffffffffffffffffff",
"ffffffffffffffffffffff. ddddde-ffffffffffffffffffffffffffffffffffffffffffffffffffffffffffffffffffffffffff",
"fffffffffffffffffffffffffffffffffffffffffffffffffffffffffffffffffffffffffffffffffffffffffffffffffffffffff",
"fffffffffffffffffffffffffffffffffffffffffffffffffffffffffffffffffffffffffffffffffffffffffffffffffffffffff",
"fffffffffffffffffffffffffffffffffffffffffffffffffffffffffffffffffffffffffffffffffffffffffffffffffffffffff",
"fffffffffffffffffffffffffffffffffffffffffffffffffffffffffffffffffffffffffffffffffffffffffffffffffffffffff",
"fffffffffffffffffffffffffffffffffffffffffffffffffffffffffffffffffffffffffffffffffffffffffffffffffffffffff",
"fffffffffffffffffffffffffffffffffffffffffffffffffffffffffffffffffffffffffffffffffffffffffffffffffffffffff",
"fffffffffffffffffffffffffffffffffffffffffffffffffffffffffffffffffffffffffffffffffffffffffffffffffffffffff",
"fffffffffffffffffffffffffffffffffffffffffffffffffffffffffffffffffffffffffffffffffffffffffffffffffffffffff",
"fffffffffffffffffffffffffffffffffffffffffffffffffffffffffffffffffffffffffffffffffffffffffffffffffffffffff",
"fffffffffffffffffffffffffffffffffffffffffffffffffffffffffffffffffffffffffffffffffffffffffffffffffffffffff",
"fffffffffffffffffffffffffffffffffffffffffffffffffffffffffffffffffffffffffffffffffffffffffffffffffffffffff",
"fffffffffffffffffffffffffffffffffffffffffffffffffffffffffffffffffffffffffffffffffffffffffffffffffffffffff",
"fffffffffffffffffffffffffffffffffffffffffffffffffffffffffffffffffffffffffffffffffffffffffffffffffffffffff",
"fffffffffffffffffffffffffffffffffffffffffffffffffffffffffffffffffffffffffffffffffffffffffffffffffffffffff",
"fffffffffffffffffffffffffffffffffffffffffffffffffffffffffffffffffffffffffffffffffffffffffffffffffffffffff",
"fffffffffffffffffffffffffffffffffffffffffffffffffffffffffffffffffffffffffffffffffffffffffffffffffffffffff",
"fffffffffffffffffffffffffffffffffffffffffffffffffffffffffffffffffffffffffffffffffffffffffffffffffffffffff",
"fffffffffffffffffffffffffffffffffffffffffffffffffffffffffffffffffffffffffffffffffffffffffffffffffffffffff",
"fffffffffffffffffffffffffffffffffffffffffffffffffffffffffffffffffffffffffffffffffffffffffffffffffffffffff",
"fffffffffffffffffffffffffffffffffffffffffffffffffffffffffffffffffffffffffffffffffffffffffffffffffffffffff",
"fffffffffffffffffffffffffffffffffffffffffffffffffffffffffffffffffffffffffffffffffffffffffffffffffffffffff",
"fffffffffffffffffffffffffffffffffffffffffffffffffffffffffffffffffffffffffffffffffffffffffffffffffffffffff",
"fffffffffffffffffffffffffffffffffffffffffffffffffffffffffffffffffffffffffffffffffffffffffffffffffffffffff",
"fffffffffffffffffffffffffffffffffffffffffffffffffffffffffffffffffffffffffffffffffffffffffffffffffffffffff",
"fffffffffffffffffffffffffffffffffffffffffffffffffffffffffffffffffffffffffffffffffffffffffffffffffffffffff"
};
