/* XPM */
static char *_09cut[] = {
/* columns rows colors chars-per-pixel */
"105 94 38 1 ",
"  c #A89400",
". c #AA9500",
"X c #AC9700",
"o c #AE9900",
"O c #B09B00",
"+ c #B29C00",
"@ c #B49E00",
"# c #B6A000",
"$ c #BAA300",
"% c #C0A900",
"& c #C4AC00",
"* c #CCB300",
"= c #CEB500",
"- c #D0B700",
"; c #F0D300",
": c #F2D500",
"> c #F4D600",
", c #F6D800",
"< c #F8DA00",
"1 c #FADC00",
"2 c #FCDD00",
"3 c #FFE000",
"4 c #FFE003",
"5 c #FFE105",
"6 c #FFE107",
"7 c #FFE109",
"8 c #FFE10B",
"9 c #FFE20D",
"0 c #FFE20F",
"q c #FFE211",
"w c #FFE213",
"e c #FFE315",
"r c #FFE317",
"t c #FFE31B",
"y c #FFE41D",
"u c #FFE41F",
"i c #FFFAB2",
"pc #000000",
/* pixels */
"pppppppppppppppppppppppppppppppppppppppppppppppppppppppppppppppppppppppppppppppppppppppppppppppo==ppppppp",
"ppppppppppppppppppppppppppppppppppppppppppppppppppppppppppppppppppppppppppppppppppppppppppppppp:Xpppppppp",
"pppppppppppppppppppppppppppppppppppppppppppppppppppppppppppppppppppppppppppppppppppppppppppppp,XXpppppppp",
"ppppppppppppppppppppppppppppppppppppppppppppppppppppppppppppppppppppppppppppppppppppppppppppp,,oppppppppp",
"pppppppppppppppppppppppppppppppppppppppppppppppppppppppppppppppppppppppppppppppppppppppppppp,,@pppppppppp",
"ppppppppppppppppppppppppppppppppppppppppppppppppppppppppppppppppppppppppppppppppppppppppp#:>##ppppppppppp",
"ppppppppppppppppppppppppppppppppppppppppppppppppppppppppppppppppppppppppppppppppppppppppO>:>#pppppppppppp",
"pppppppppppppppppppppppppppppppppppppppppppppppppppppppppppppppppppppppppppppppppppppppOO>:##pppppppppppp",
"pppppppppppppppppppppppppppppppppppppppppppppppppppppppppppppppppppppppppppppppppppppp@O,<##ppppppppppppp",
"ppppppppppppppppppppppppppppppppppppppppppppppppppppppppppppppppppppppppppppppppppppp,@,,,#pppppppppppppp",
"ppppppppppppppppppppppppppppppppppppppppppppppppppppppppppppppppppppppppppppppppppp@,,<<,,ppppppppppppppp",
"pppppppppppppppppppppppppppppppppppppppppppppppppppppppppppppppppppppppppppppppppp@@,<<<<pppppppppppppppp",
"ppppppppppppppppppppppppppppppppppppppppppppppppppppppppppppppppppppppppppppppppp@@2<<<,ppppppppppppppppp",
"pppppppppppppppppppppppppppppppppppppppppppppppppppppppppppppppppppppppppppppppp9@4211<pppppppppppppppppp",
"ppppppppppppppppppppppppppppppppppppppppppppppppppppppppppppppppppppppppppppppp99i4421ppppppppppppppppppp",
"ppppppppppppppppppppppppppppppppppppppppppppppppppppppppppppppppppppppppppppppp97i44ppppppppppppppppppppp",
"ppppppppppppppppppppppppppppppppppppppppppppppppppppppppppppppppppppppppppppp999i74pppppppppppppppppppppp",
"pppppppppppppppppppppppppppppppppppppppppppppppppppppppppppppppppppppppppppp999ii5Xpppppppppppppppppppppp",
"pppppppppppppppppppppppppppppppppppppppppppppppppppppppppppppppppppppppppppq9iiii5opppppppppppppppppppppp",
"pppppppppppppppppppppppppppppppppppppppppppppppppppppppppppppppppppppppppee9iiii5#ppppppppppppppppppppppp",
"pppppppppppppppppppppppppppppppppppppppppppppppppppppppppppppppppppppppptqqiiii79pppppppppppppppppppppppp",
"pppppppppppppppppppppppppppppppppppppppppppppppppppppppppppppppppppppppytiiiii71ppppppppppppppppppppppppp",
"ppppppppppppppppppppppppppppppppppppppppppppppppppppppppppppppppppppp*uyiiiii9:pppppppppppppppppppppppppp",
"pppppppppppppppppppppppppppppppppppppppppppppppppppppppppppppppppppp*yyiiiii:;opppppppppppppppppppppppppp",
"ppppppppppppppppppppppppppppppppppppppppppppppppppppppppppppppppppp*etiiiiiiOOopppppppppppppppppppppppppp",
"pppppppppppppppppppppppppppppppppppppppppppppppppppppppppppppppppp*qiiiiii44OOppppppppppppppppppppppppppp",
"ppppppppppppppppppppppppppppppppppppppppppppppppppppppppppppppppp*9iiiiii11Xppppppppppppppppppppppppppppp",
"pppppppppppppppppppppppppppppppppppppppppppppppppppppppppppppppp**iiiiii,<Xpppppppppppppppppppppppppppppp",
"ppppppppppppppppppppppppppppppppppppppppppppppppppppppppppppppp*=iiiiii<,#ppppppppppppppppppppppppppppppp",
"pppppppppppppppppppppppppppppppppppppppppppppppppppppppppppppp**iiiiii71Xpppppppppppppppppppppppppppppppp",
"ppppppppppppppppppppppppppppppppppppppppppppppppppppppppppppp**iiiiii99#ppppppppppppppppppppppppppppppppp",
"pppppppppppppppppppppppppppppppppppppppppppppppppppppppppppp*qiiiiii2Xppppppppppppppppppppppppppppppppppp",
"ppppppppppppppppppppppppppppppppppppppppppppppppppppppppppp9qiiiiii9Opppppppppppppppppppppppppppppppppppp",
"ppppppppppppppppppppppppppppppppppppppppppppppppppppppppppqqiiiiiiioOpppppppppppppppppppppppppppppppppppp",
"pppppppppppppppppppppppppppppppppppppppppppppppppppppppp*q9iiiiiii Xppppppppppppppppppppppppppppppppppppp",
"ppppppppppppppppppppppppppppppppppppppppppppppppppppppp*q9iiiiiii  pppppppppppppppppppppppppppppppppppppp",
"pppppppppppppppppppppppppppppppppppppppppppppppppppppp*9iiiiiiii  ppppppppppppppppppppppppppppppppppppppp",
"ppppppppppppppppppppppppppppppppppppppppppppppppppppp*qiiiiiiii9 pppppppppppppppppppppppppppppppppppppppp",
"pppppppppppppppppppppppppppppppppppppppppppppppppppp**iiiiiiii9 ppppppppppppppppppppppppppppppppppppppppp",
"ppppppppppppppppppppppppppppppppppppppppppppppppppp**iiiiiii99 pppppppppppppppppppppppppppppppppppppppppp",
"pppppppppppppppppppppppppppppppppppppppppppppppppp**iiiiiii99 ppppppppppppppppppppppppppppppppppppppppppp",
"ppppppppppppppppppppppppppppppppppppppppppppppppp**iiiiiiiqXppppppppppppppppppppppppppppppppppppppppppppp",
"ppppppppppppppppppppppppppppppppppppppppppppppppp*qiiiiiiqXpppppppppppppppppppppppppppppppppppppppppppppp",
"pppppppppppppppppppppppppppppppppppppppppppppppp=9iiiiiiq#ppppppppppppppppppppppppppppppppppppppppppppppp",
"ppppppppppppppppppppppppppppppppppppppppppppppp=qiiiiii9$#ppppppppppppppppppppppppppppppppppppppppppppppp",
"pppppppppppppppppppppppppppppppppppppppppppppp=9iiiiiiq&%pppppppppppppppppppppppppppppppppppppppppppppppp",
"pppppppppppppppppppppppppppppppppppppppppppp=99iiiiii==pppppppppppppppppppppppppppppppppppppppppppppppppp",
"ppppppppppppppppppppppppppppppppppppppppppp999iiiiii--ppppppppppppppppppppppppppppppppppppppppppppppppppp",
"ppppppppppppppppppppppppppppppppppppppppppppppppppppppppppppppppppppppppppppppppppppppppppppppppppppppppp",
"ppppppppppppppppppppppppppppppppppppppppppppppppppppppppppppppppppppppppppppppppppppppppppppppppppppppppp",
"ppppppppppppppppppppppppppppppppppppppppppppppppppppppppppppppppppppppppppppppppppppppppppppppppppppppppp",
"ppppppppppppppppppppppppppppppppppppppppppppppppppppppppppppppppppppppppppppppppppppppppppppppppppppppppp",
"ppppppppppppppppppppppppppppppppppppppppppppppppppppppppppppppppppppppppppppppppppppppppppppppppppppppppp",
"ppppppppppppppppppppppppppppppppppppppppppppppppppppppppppppppppppppppppppppppppppppppppppppppppppppppppp",
"ppppppppppppppppppppppppppppppppppppppppppppppppppppppppppppppppppppppppppppppppppppppppppppppppppppppppp",
"ppppppppppppppppppppppppppppppppppppppppppppppppppppppppppppppppppppppppppppppppppppppppppppppppppppppppp",
"ppppppppppppppppppppppppppppppppppppppppppppppppppppppppppppppppppppppppppppppppppppppppppppppppppppppppp",
"ppppppppppppppppppppppppppppppppppppppppppppppppppppppppppppppppppppppppppppppppppppppppppppppppppppppppp",
"ppppppppppppppppppppppppppppppppppppppppppppppppppppppppppppppppppppppppppppppppppppppppppppppppppppppppp",
"ppppppppppppppppppppppppppppppppppppppppppppppppppppppppppppppppppppppppppppppppppppppppppppppppppppppppp",
"ppppppppppppppppppppppppppppppppppppppppppppppppppppppppppppppppppppppppppppppppppppppppppppppppppppppppp",
"ppppppppppppppppppppppppppppppppppppppppppppppppppppppppppppppppppppppppppppppppppppppppppppppppppppppppp",
"ppppppppppppppppppppppppppppppppppppppppppppppppppppppppppppppppppppppppppppppppppppppppppppppppppppppppp",
"ppppppppppppppppppppppppppppppppppppppppppppppppppppppppppppppppppppppppppppppppppppppppppppppppppppppppp",
"ppppppppppppppppppppppppppppppppppppppppppppppppppppppppppppppppppppppppppppppppppppppppppppppppppppppppp",
"ppppppppppppppppppppppppppppppppppppppppppppppppppppppppppppppppppppppppppppppppppppppppppppppppppppppppp",
"ppppppppppppppppppppppppppppppppppppppppppppppppppppppppppppppppppppppppppppppppppppppppppppppppppppppppp",
"ppppppppppppppppppppppppppppppppppppppppppppppppppppppppppppppppppppppppppppppppppppppppppppppppppppppppp",
"ppppppppppppppppppppppppppppppppppppppppppppppppppppppppppppppppppppppppppppppppppppppppppppppppppppppppp",
"ppppppppppppppppppppppppppppppppppppppppppppppppppppppppppppppppppppppppppppppppppppppppppppppppppppppppp",
"ppppppppppppppppppppppppppppppppppppppppppppppppppppppppppppppppppppppppppppppppppppppppppppppppppppppppp",
"ppppppppppppppppppppppppppppppppppppppppppppppppppppppppppppppppppppppppppppppppppppppppppppppppppppppppp",
"ppppppppppppppppppppppppppppppppppppppppppppppppppppppppppppppppppppppppppppppppppppppppppppppppppppppppp",
"ppppppppppppppppppppppppppppppppppppppppppppppppppppppppppppppppppppppppppppppppppppppppppppppppppppppppp",
"ppppppppppppppppppppppppppppppppppppppppppppppppppppppppppppppppppppppppppppppppppppppppppppppppppppppppp",
"ppppppppppppppppppppppppppppppppppppppppppppppppppppppppppppppppppppppppppppppppppppppppppppppppppppppppp",
"ppppppppppppppppppppppppppppppppppppppppppppppppppppppppppppppppppppppppppppppppppppppppppppppppppppppppp",
"ppppppppppppppppppppppppppppppppppppppppppppppppppppppppppppppppppppppppppppppppppppppppppppppppppppppppp",
"ppppppppppppppppppppppppppppppppppppppppppppppppppppppppppppppppppppppppppppppppppppppppppppppppppppppppp",
"ppppppppppppppppppppppppppppppppppppppppppppppppppppppppppppppppppppppppppppppppppppppppppppppppppppppppp",
"ppppppppppppppppppppppppppppppppppppppppppppppppppppppppppppppppppppppppppppppppppppppppppppppppppppppppp",
"ppppppppppppppppppppppppppppppppppppppppppppppppppppppppppppppppppppppppppppppppppppppppppppppppppppppppp",
"ppppppppppppppppppppppppppppppppppppppppppppppppppppppppppppppppppppppppppppppppppppppppppppppppppppppppp",
"ppppppppppppppppppppppppppppppppppppppppppppppppppppppppppppppppppppppppppppppppppppppppppppppppppppppppp",
"ppppppppppppppppppppppppppppppppppppppppppppppppppppppppppppppppppppppppppppppppppppppppppppppppppppppppp",
"ppppppppppppppppppppppppppppppppppppppppppppppppppppppppppppppppppppppppppppppppppppppppppppppppppppppppp",
"ppppppppppppppppppppppppppppppppppppppppppppppppppppppppppppppppppppppppppppppppppppppppppppppppppppppppp",
"ppppppppppppppppppppppppppppppppppppppppppppppppppppppppppppppppppppppppppppppppppppppppppppppppppppppppp",
"ppppppppppppppppppppppppppppppppppppppppppppppppppppppppppppppppppppppppppppppppppppppppppppppppppppppppp",
"ppppppppppppppppppppppppppppppppppppppppppppppppppppppppppppppppppppppppppppppppppppppppppppppppppppppppp",
"ppppppppppppppppppppppppppppppppppppppppppppppppppppppppppppppppppppppppppppppppppppppppppppppppppppppppp",
"ppppppppppppppppppppppppppppppppppppppppppppppppppppppppppppppppppppppppppppppppppppppppppppppppppppppppp",
"ppppppppppppppppppppppppppppppppppppppppppppppppppppppppppppppppppppppppppppppppppppppppppppppppppppppppp",
"ppppppppppppppppppppppppppppppppppppppppppppppppppppppppppppppppppppppppppppppppppppppppppppppppppppppppp"
};
