/* XPM */
static char *_93589553af34ce68330b5b34150429cMwSDWz23N99JCQHw[] = {
/* columns rows colors chars-per-pixel */
"64 64 149 2 ",
"   c #000003",
".  c #03060D",
"X  c #07080E",
"o  c #08090F",
"O  c #030710",
"+  c #050911",
"@  c #0A0D14",
"#  c #0E121A",
"$  c #121214",
"%  c #12141B",
"&  c #15191F",
"*  c #161921",
"=  c #1B1D23",
"-  c #1F2228",
";  c #212224",
":  c #24262D",
">  c #27282D",
",  c #292A2D",
"<  c #272A31",
"1  c #2A2D34",
"2  c #2F3033",
"3  c #323232",
"4  c #33353A",
"5  c #36383E",
"6  c #3C3C3C",
"7  c #3C3F45",
"8  c #3F4045",
"9  c #444444",
"0  c #44464B",
"q  c #474849",
"w  c #4B4B4C",
"e  c #50504F",
"r  c #474A51",
"t  c #4A4D53",
"y  c #4E5057",
"u  c #4F5259",
"i  c #535354",
"p  c #53555C",
"a  c #56585E",
"s  c #5B5B5C",
"d  c #60605F",
"f  c #575960",
"g  c #5B5D63",
"h  c #5E6066",
"j  c #5F6268",
"k  c #626364",
"l  c #63656A",
"z  c #66686E",
"x  c #6B6B6C",
"c  c #666970",
"v  c #6D6E71",
"b  c #6F7073",
"n  c #737375",
"m  c #757679",
"M  c #77787B",
"N  c #7A7B7C",
"B  c #7E7F81",
"V  c #7F8081",
"C  c #828384",
"Z  c #858689",
"A  c #87888B",
"S  c #8A8B8C",
"D  c #8D8E91",
"F  c #8F9093",
"G  c #929394",
"H  c #959699",
"J  c #97989B",
"K  c #9A9B9D",
"L  c #9D9EA1",
"P  c #9FA0A3",
"I  c #A2A2A5",
"U  c #A5A6A9",
"Y  c #A7A8AB",
"T  c #AAABAD",
"R  c #ADAEB1",
"E  c #AFB0B3",
"W  c #B0B2B5",
"Q  c #B2B3B6",
"!  c #B0B1B4",
"~  c #B3B4B7",
"^  c #B3B4B6",
"/  c #B2B3B6",
"(  c #B8B8B7",
")  c #B4B5B8",
"_  c #B5B5B9",
"`  c #B5B6B9",
"'  c #B4B6B9",
"]  c #B6B6B9",
"[  c #B5B7BB",
"{  c #B5B6BA",
"}  c #B6B7BA",
"|  c #B7B7BA",
" . c #B5B6B9",
".. c #B7B8BB",
"X. c #B7B9BB",
"o. c #B7B8BB",
"O. c #B8B8BB",
"+. c #B8B9BC",
"@. c #B9B9BD",
"#. c #B9BABD",
"$. c #B9BABE",
"%. c #BABBBE",
"&. c #B9BBBE",
"*. c #BBBDC0",
"=. c #BCBDC1",
"-. c #BDBEC1",
";. c #BDBEC2",
":. c #BEBFC2",
">. c #BEBFC3",
",. c #BDBEC1",
"<. c #BFC0C4",
"1. c #BFC0C4",
"2. c #C0C1C4",
"3. c #C0C1C5",
"4. c #C1C2C5",
"5. c #C3C4C6",
"6. c #C3C4C7",
"7. c #C4C5C7",
"8. c #C1C3C6",
"9. c #C3C4C8",
"0. c #C3C5C8",
"q. c #C5C6C8",
"w. c #C5C6CA",
"e. c #C6C7CA",
"r. c #C6C7CB",
"t. c #C4C6C9",
"y. c #C7C8CA",
"u. c #C6C8CC",
"i. c #C7C8CC",
"p. c #C8C9CC",
"a. c #C8C9CD",
"s. c #C9CBCD",
"d. c #C9CACE",
"f. c #CCCED1",
"g. c #CDCED3",
"h. c #CECFD2",
"j. c #CCCDD1",
"k. c #CED0D3",
"l. c #CFD0D4",
"z. c #D0D0D4",
"x. c #D1D2D6",
"c. c #D5D6DA",
"v. c #D4D5DA",
"b. c #D7D8DC",
"n. c #D9DADE",
"m. c #DCDDE1",
"M. c #DFE0E4",
"N. c #E0E2E6",
"B. c #E3E4E9",
/* pixels */
"# O O . O O O O O O O O O O O O O O O O O O O O O O O O O O O O O . . . . . O . . . . . . . . . . . O @ @ # # # # % # # % % % % ",
"1 p p a p y t y u y y p t r r t t t r r t t t t t t t t t y y t p a a p f f p p f p p p a f p p a f y 7 4 > : : ; = = * & & & * ",
"B z.U I ! ! ! ~ ' ) ' O...' E +.8.-.-.*.+.+.-.8.8.>.8.-.+.G R q.R C G G A B n n m A V N M m m C v m g q q 6 9 9 9 6 s s i i N 5 ",
"m M s k l n x x l v l s b m n M m N B n N N C D S A A S A N n C I C S C C G G S K Y K D S A C I K S ~ R q.f.! G q.T K C K b L 0 ",
"a n s s l B N V S H F S L -.i.f.R 9.' T 9.v.' f.*.' R d...R <.H q.d.y.E R k.! T f.d.O.Y F S C T G M K B C B x s a i q 9 w 9 m r ",
"M n i i s k k l x x x x v m B S A D G N R d.E q.! ' U 6.' I ' F 8.-.6.~ ' q.T I d.7.T C C C V M N m x x d s k s s i i i i 6 k 8 ",
"z $ 3 s 6 6 9 9 q i i s g k x m M N C S T f.' d.~ ! T 8.2.R ' G d.8.d.' +.q.! T d.q.~ S B m x m s s l s k k i s x i k m M i 9 t ",
"2 e I q.T K T S S S m G N w z N x M x x T d.~ q.E ! T d.8.T +.G d.q.8.~ ..q.! T y.8.R ! ! I G q.K K %.T 2.d.! 2.m.O.2.n.N.S q 0 ",
"4 x R f.-.! l.%.+.q.' f.d.U d.q.R d.-.T %.d.! q.~ ~ I 8.1.T ..S 8.<.8.' +.d...! q.6.T R d...I f.R R j.E -.f.R %.n.i.8.b.B.n x t ",
"z G T v.+.! z.+.+.-.! y.8.R 6.8.Y y.8.R ..q.R 6.' ' Y y.8.R ' C -.1.8.~ ' q.' ! q.7.! ' 7...T k.R ! z.! -.f.' -.m.i.q.v.N.A U p ",
"c 8.%.v.-.' z.-.-.q.E d.9.! y.q.Y q.8.T ..y.E 8.+.o.U 6.8.~ %.C %.%.-.R ' y.) R q.8.R ' f.j.) z.! ! f.R q.x.8.<.m.8.q.v.M.G ..p ",
"c 2.+.z.-.! l.-.1.j.' f.q.E 8.6.T y.6.T +.8.T 8...! U 1.-.! %.C ..-.-.! ~ y.~ T 6.8.R ~ d.q...v.' +.f.E 1.v.-.8.m.9.6.b.m.D +.p ",
"z -.+.z.%.E l.<.8.q.' s.d.' q.6.T d.q.R %.i.U 1...R I 6.-.' +.C %.1.8.T R y.+.! 6.6.R ' f.q.R z.' -.z.' +.k.%.q.n.8.<.v.m.H %.u ",
"z +.+.v.-.! f.<.q.9.! d.q...d.q.T d.q.T ..y.R 8.~ ' T 8.-.E ' C %.1.8.T T y.' ! q.q.! ..f.y.R f.~ ..f.+.6.z.-.8.n.8.9.b.M.G +.p ",
"z -...z.8.' z.q.q.q.E d.6.' d.i.R d.y.E ' 6.R 7.~ ' U 8.-.! -.C -.1.6.! ! y.' E 6.q.R ..d.q.R k.! -.f.! 1.k.+.9.b.8.q.b.M.K ' p ",
"h 2.-.z.q.' z.q.q.i.) d.q...f.i.R y.q.! ' q.R q...' U 8.-.~ -.B -.6.6.! E d...! q.i.! %.d.q.R k.' %.j.! 8.f.+.q.n.9.8.v.m.H ..f ",
"h -.o.z.8.! v.9.8.d.~ d.9.' f.f.R q.q.! ' 2.T q.%.! T d.1.' 8.B -.8.8.! R y.' ' j.d.! +.d.q.R z.' +.d.! 6.l.*.8.b.q.6.v.m.H ' f ",
"j +...z.8.) v.8.9.d.~ d.q.~ y.j.! y.d.' +.q.T 8.-.' R d.1.' 8.N %.8.8.~ ~ d.+.! y.p.R ..q.q.E k.E +.d.' 8.l.+.8.n.9.8.v.m.J ' g ",
"j 1.+.v.i.' z.6.q.d.' d.q...f.d.R q.q.! ' f.! 8.O.' T d.1.! 1.M -.6.6.~ E y.+.~ d.d.R +.d.q.R d.R +.s.) 8.l.+.8.n.q.-.z.n.L R u ",
"l 8.*.v.d.+.z.9.q.d.+.f.y...f.f.E q.d.R ~ z.' q.8.+.T q.1.! 8.M -.8.8.E E q.O.' q.d.~ +.d.q.R f.E %.f.E 2.f...8.n.d.<.k.n.I ! p ",
"l q.' l.y.o.v.q.8.d.+.l.d.~ d.f.) d.y.! ' d.! q.1.+.T 7.%.! 8.M 1.8.8.~ ! q...~ y.d.! ..d.8.R k.! %.d.! 8.f.+.8.v.q.9.v.m.U ..p ",
"l 6.' g.6...v.q.6.j.+.f.j.o.f.d.~ d.d.! ' f.! y.-.+.R 8.%.E 8.n 1.2.q.~ ' d.+.' d.d.! ..d.9.! f.R +.f.' q.x.*.<.v.i.q.b.N.I ! p ",
"l 8.o.z.8.+.v.9.q.f.-.x.f.+.l.d.' d.d.~ ' d.! q.-.' R z.8.! -.n q.y.6.~ ' d.+.~ d.d.L ! l.q.! k.T +.f.' 9.z.-.8.v.q.9.v.m.U ) p ",
"l y.*.v.q.' v.q.9.j.*.v.f.+.x.d.~ d.d.! ! q.E q.+.' ..v.q.! -.z i.d.7.' ! d.+.E q.y.T ' f.8.! z.T +.k.~ 8.z.*.8.b.q.<.v.m.I ~ a ",
"j +.T v.q.+.b.u.u.f.*.z.f.+.v.f.E d.d.! ' z...d.-.+.+.f.8.! <.h -.q.7.' ' d.-.! y.d.' %.d.i.' z.T +.l.' q.z.-.8.n.q.8.n.b.Y ) p ",
"l 8.Y v.d.+.v.i.y.f.+.l.d.*.n.l.R d.q.! ! z.o.d.-.o.-.v.6.~ *.a -.q.8.E R f.-.! d.y.E +.k.d.! z.! %.v.%.6.z.-.6.b.q.-.v.f.R ) a ",
"h d.f.c.d.+.v.i.q.j.! v.d.+.v.l.' d.d.! I l.) d.+.' +.z.8.' -.s -.8.-.! ) f.1...j.d.E 1.d.6.U z.! <.z.*.q.z.1.8.n.8.9.n.m.~ ' p ",
"y T <.b.d.+.n.q.q.k.' f.y.+.v.f.' q.f.I V v.' d.-.) ..x.<.) ' 0 8.q.8.! R f.1.' f.f.T -.f.q.E z.~ 1.l.+.9.z.-.8.m.6.8.m.m.R +.f ",
"p T <.v.d.+.v.q.8.f.+.l.d.+.v.f.' q.i.R m l.! d.-.R ! v.<.! ..8 O.6.-.~ T f.%.! f.f.T ! g.y.o.v.) 8.v.' q.l.+.-.n.q.' b.m.! +.g ",
"p T -.v.i.+.n.d.j.z.-.l.j.+.z.f.o.q.d.+.! j.! d.+.o.~ v.9.' ! 4 T 1.6.' T f.-.' f.s.E ..d.q.+.b.' -.z.' 8.v.-.%.n.d.o.v.m.R +.g ",
"a T 8.v.d.%.b.d.d.v.-.z.d.+.l.f.o.d.z.' R f.~ d.8.+.' l.) ' T 5 ' 6.8.E ! f.-.' d.j.E ' z.d.+.m...-.f.' 9.z.-.-.n.d.) v.m.E +.f ",
"p K ..n.f.-.n.d.d.x.-.z.i.o.z.d.o.f.v.%.! j.! d.-.' 1.z.+.G n 8.l.v.d.o.~ z.*.' f.f.~ ' z.d.' n.o.-.f.' q.f.+.-.n.d.! v.m.L ' j ",
"a K L n.j.-.b.j.i.v.9.b.f.*.x.f.~ f.f.o.! f.' d.-.) ' z.q.m 3 l R R ~ -.! k.-.' k.d.' +.k.+.! v.! +.z.' i.b.q.-.b.q.' c.m.D R j ",
"p Y I c.d.%.v.d.i.x.9.v.z.*.z.j.~ k.l.o.+.v.%.f.6.*.+.z.<.I I , 9.v.f.-.' l.-.! f.f.' O.k.q.! z.) -.z.! 9.v.>.-.v.q.' c.n.H ! g ",
"a ! L n.j.-.c.d.j.z.-.v.l.%.v.d.~ z.z.o.+.l.*.l.q.%.+.z.*.T v.k +.v.l.+.! l.1.R f.f.+.+.f.y.! f.' 1.x...8.z.-.-.n.q.E v.c.D %.l ",
"a <.R c.d.+.c.d.j.z.-.v.v.+.z.f...z.z.+.+.l.-.l.8.-.-.v.*.R b.D ' v.v.o.E z.6.' f.z.+.-.k.q.~ v.' -.l.' 9.v.-.>.b.i.E z.v.U +.l ",
"j 8.' v.q.%.b.j.j.z.*.z.f.+.z.d.! k.v.%.' l.-.f.8.*.8.n.f.D G M ' q.l.-.E f.1.+.f.f.-.-.z.u.' x.+.-.z.' 6.v.-.%.n.i.R z.v.T 8.z ",
"h q.+.v.q.+.b.j.f.v.-.z.f.+.l.j.U y.v.-.' f.*.j.9.-.8.b.f.Y I a ' z.m.8.! v.8.+.z.z.+.+.z.d.' z.o.-.v.' 8.b.-.+.n.q.! z.v.! <.z ",
"h 8.+.v.i.*.b.j.f.v.<.v.l.+.f.j.' f.z.-.+.f.*.f.<.*.8.v.f.q.z.g ..d.n.8.! v.q.+.f.v.q.+.z.d...v.+.-.v.' <.v.-.+.b.q.' v.c.! 9.l ",
"l q.*.m.f.>.b.j.j.v.-.z.z.-.l.f.o.f.x.-.+.z.*.d.8.>.1.v.j.9.m.l -.! Y d.' z.q.+.f.l.<.o.z.i.o.z.-.8.z.' -.n.-.+.v.q.! f.x.R 9.l ",
"j d.8.n.f.-.b.d.j.v.8.v.l.-.v.z.' l.v.-.-.m.<.f.8.-.8.v.j.9.n.k ..T U 8.' v.q.+.v.z.*.+.z.d.+.z.-.<.v.+.-.v.-...v.d.) f.z.! q.l ",
"g 9.q.v.l.-.b.d.d.v.9.v.l.-.v.z.' f.v.-.+.n.>.j.8.-.8.z.d.9.n.l R 8.) <.' z.y.+.v.z.+.+.v.d.' z.*.-.z.+.*.v.-.+.v.u.+.v.v.! q.l ",
"l y.9.v.l.-.m.j.d.z.9.b.v.<.v.z.' d.v.-.+.v.*.d.8.-.8.z.i.8.n.z E v.d.6.+.v.q...z.g.*.-.v.d.o.z.-.8.n.-.8.b.d.-.v.q.[ f.v.' 8.g ",
"g f.q.n.f.-.b.i.j.x.8.v.v.1.z.x.' f.v.-.*.n.-.d.9.-.6.z.q.9.m.k R z.i.-.+.z.q.+.x.z.-.8.v.j.+.z.9.8.b.+.-.m.q.%.v.u.<.z.v.+.6.j ",
"a %.8.b.f.-.b.i.j.c.8.v.v.<.v.l.' g.c.<.+.b.*.d.-.+.q.x.d.q.n.l T z.d.8.-.v.q.-.z.f.*.>.n.j...f.-.8.v.-.-.v.+.' v.q.o.n.b.8.d.g ",
"j ..%.b.j.-.b.d.j.v.8.x.v.-.z.l.+.l.c.8.' b.<.j.<.-.q.v.d.q.m.l R v.f.q.>.v.i.*.x.f.o.>.b.z.-.x.9.<.v.*.-.v.+...v.i.' v.v.o.d.j ",
"c +.%.v.d.-.b.j.l.v.8.z.v.8.z.z.+.z.v.q.-.v.>.d.9.8.q.v.d.8.m.h T z.j.y.8.c.i.+.v.z.o.<.c.j.+.c.i.8.n.+.-.v.-.+.b.j.o.f.v.! 9.l ",
"z <.-.v.d.-.n.j.j.v.-.l.v.<.z.l.+.v.v.q.9.c.>.d.8.*.8.v.d.q.m.h R v.f.d.8.v.d.%.x.z.*.<.v.f.+.v.i.8.v...*.v.-.o.b.d.' z.v.! 8.l ",
"l 1.-.v.j.-.n.j.f.v.-.z.z.+.g.l.*.v.v.q.8.c.*.j.8.+.8.v.i.u.M.g R b.f.d.q.b.j.*.z.x.-.8.v.d.+.v.d.*.v.+.+.v.*.' v.f...z.v.E 6.l ",
"l 8.%.v.j.<.m.f.f.v.9.v.k.8.v.v.-.v.b.i.8.b.-.d.1.*.i.v.d.q.M.k R v.j.i.8.v.q.+.z.v.<.-.v.f.+.v.f.-.v.+.+.v...E v.d.o.f.v.R 6.l ",
"c 8.+.v.j.<.n.f.g.v.8.v.z.q.z.l.>.v.c.f.q.n.-.d.8.+.d.v.q.9.B.l T v.d.q.>.z.9.+.v.v.-.+.z.d.' v.v.+.l...' z.R U f.q.! q.f.U +.h ",
"z 8.) x.j.<.m.f.f.v.9.v.v.q.z.z.>.v.v.j.9.n.-.d.<.-.d.v.q.9.B.l T v.f.q.8.v.q.+.v.z.%.' v.q.E z.q.R f.! ! z.! U d.9.K -.q.K -.l ",
"c 8.E z.d.8.n.d.f.v.u.v.z.q.v.v.-.c.n.g.q.n.<.z.8.*.l.v.q.-.m.h T n.f.i.8.v.j.o.x.z.-.D G H n K m n U D A G S m n v l l z i S g ",
"l 9.R z.d.9.m.f.l.l.i.v.l.8.x.v.-.b.v.j.q.n.>.z.q.+.z.b.d.q.b.g U v.d.q.-.z.j.o.z.v.-.S K K I G K G S S S C A S C C S N M n S g ",
"c -.K x.j.9.m.f.z.l.d.m.z.9.v.v.9.c.c.d.q.c.-.l.8.*.j.m.j.8.v.k Y n.f.f.<.x.j.+.z.v.i.D T I M K S k C m m C x k N N i C S 9 q a ",
"c T S z.u.<.n.l.d.v.8.b.l.8.b.m.d.n.v.j.8.v.-.j.-.-.j.v.6.9.B.l ! M.z.l.q.v.d.' z.v.f.R b.n.I f.y.U z.' E z.T I z.f.M 1.N.n w l ",
"c ' H f.y.+.v.j.f.v.8.z.f.9.c.v.<.m.v.j.-.z.1.f.-.-.j.x.q.1.N.g Y N.g.i.8.z.q.) z.n.x.8.m.N.~ d.g.o.z.8.+.c.o.R v.g.H q.v.I k y ",
"l -.U d.+.Y z.d.+.y.E z.j.+.v.v.8.m.n.j.q.l.*.k.8.' d.n.i.-.m.h U m.f.d.<.z.d.! z.z.i.*.n.m.-.d.f.+.f.<.+.b.+.R v.f.P d.x.' S y ",
"j T n m x z D G S S C R +.M L f.F I -.T -.m.*.j.8.+.-.x.q.-.N.g L n.f.d.-.z.d.E g.v.8.! b.m.+.j.j.+.z.q.*.v.+.R c.d.I j.v.+.-.l ",
"p I N C S S S S D S C C D S S K n n M x S k.8.d.1.+.8.z...+.m.g H n.k.i.%.f.q.T j.v.1.+.n.b.~ d.j.+.f.9.-.z.-.E z.d.U d.d.8.j.g ",
"h v ; 6 6 w i s s s s s l x N A G H G G H q.-.y.8.o.+.j.R R U p H n.d.d.+.d.8.U d.z.<.D -.B.q.d.6.-.n.i.*.b.q.! y.-.R d.f...q.h ",
"l K l G G 5.O.( T K G G N C N n n M C n J n.d.z.y.8.U z.' C G w J m.n.E T n.l.E k.M.v.S x G I z.f.H ' -.8.n.d.+.f.-.I v.l.R d.g ",
"- ; % > 0 k p A m S F i s N T H I C 0 w t b Z R R %.K C S g N , m 8.L t l G D b A K 0 8 v a 6 N z , 2 i C K H S ! T n ! ' D l < ",
"@ . .                           .           . + & > $   % = @ . X @ o . .                 . .       .       . X % % @ % % @ @ # "
};
