/* XPM */
static char *charmander[] = {
/* columns rows colors chars-per-pixel */
"48 48 14 1 ",
"  c #101010",
". c #184830",
"X c #993300",
"o c #D04008",
"O c #D85020",
"+ c #40A078",
"@ c #F09008",
"# c #F89040",
"$ c #F8C060",
"% c #F8D068",
"& c #F8E090",
"* c #90C8D8",
"= c #F8F8F8",
"- c #000000",
/* pixels */
"------------------------------------------------",
"------------------------------------------------",
"------------------------------------------------",
"------------------------------------------------",
"------------------------------------------------",
"------------------------------------------------",
"------------------------------------------------",
"------------------------------------------------",
"------------------------------------------------",
"------------------------------------------------",
"------------------------------------------------",
"------------------------------------------------",
"------------------------------------------------",
"---------------o-----------------OXX  X---------",
"---------------oo--------------XO$$$$$#X -------",
"--------------ooo-------------X$$$$$$$### ------",
"-----------o-ooo-------------X$$$$$$$#$### -----",
"--------o-oo----------------O##$$$$$#$##### ----",
"-------o-oo---o-------------X#$#$#$#$######X----",
"------oo-oo-ooo------------O###$#$#$######X+X---",
"------oooooooo-------------X##############X=X---",
"-----oooo@ooo--------------X##############X.X---",
"-----ooo@oo@o--------------X##############X.X---",
"----ooo@oo@o---------------X##############X+X---",
"----ooo@@@oo--------------O###############X*#X--",
"---ooo@@@@%o--------------X################X# --",
"---o@o@@%@%oo------------- ###################X-",
"--oo@@%@%@%oo------------- ################### -",
"--oo@@%@%%%%oo------------ ################### -",
"--oo@%%@@%%%o@------------X###############XXXO -",
"-ooo@%%%%%%%%%@----------X##############OOOOX --",
"-ooo@%%%%o@%%%o---------- #############OOOO  ---",
"-ooo@@%%@oo%%%o--------- ############OOOO  -----",
"---oo@%%ooo%%@---------X############OOO  -------",
"----o@%@oo@%%o--------X#############OO ---------",
"----o%%ooo%@o--------X$##############XX---------",
"-----%Oooo@---------O$#$#$#########$$#X---------",
"------XOO ----------X$$$$##########$$$#X--------",
"------X## ---------X$$$$#$##############X-------",
"-----X### ---------X$$$$$#$#######X######X------",
"-----X### --------X$$$$$#$########X####### -----",
"-----X###X--------X$$$$$$#########$XOO####O ----",
"----X#####-------X$$$$$$#$#######$$$X OOOOO ----",
"---- &####X------X$$$$$#$#######$&&$XX OOOOO ---",
"---- &####X-----X$#$#$#$########$&&$X-- OOO ----",
"---- &####O ----X#$#$#$########$&&&$X---  O ----",
"----X&&##OOO  --X##X###########$&&$$X----- -----",
"-----X&&OOOOOOX   X###########$&&$$X------------"
};
