/* XPM */
static char *cuttable[] = {
/* columns rows colors chars-per-pixel */
"48 48 10 1 ",
"  c #16232D",
". c #49494D",
"X c #6D4B50",
"o c #4C6956",
"O c #6BA24C",
"+ c #B18A4C",
"@ c #48E888",
"# c #48E098",
"$ c #50E890",
"% c #68E8A0",
/* pixels */
"%%%%$@%@$$%$$@$$%%%%$@%@$$%$$@$$%%%%$@%@$$%$$@$$",
"$%$$@#$#@$$$@$@$$%$$@#$#@$$$@$@$$%$$@#$#@$$$@$@$",
"%@$$$$$$$$$$$@@@%@$$$$$$$$$$$@@@%@$$$$$$$$$$$@@@",
"$#@$$$$$$$$$$$@#$#@$$$$$$$$$$$@#$#@$$$$$$$$$$$@#",
"@@$$$$$$$@$$$$$@@@$$$$$$$@$$$$$@@@$$$$$$$@$$$$$@",
"$$$$$$$$@$@$$$$$$$$$$$$$@$@$$$$$$$$$$$$$@$@$$$$$",
"$$$$$$$$@@@$$$$$$$$$$$$$@@@$$$$$$$$$$$$$@@@$$$$$",
"$$$$@$$$$$$$$$$$$$$$@$$$$$$$$$$$$$$$@$$$$$$$$$$$",
"$$$@%@$$@$$$$$$$$$$@%@$$@$$$$$$$$$$@%@$$@$$$$$$$",
"%$$@@@@#$#@$%%%%%$$@@@@#$#@$%%%%%$$@@@@#$#@$%%%%",
"%%%%%$$@@@$%%%%%%%%%%$$@@@$%%%%%%%%%%$$@@@$%%%%%",
"%%%%%%%%%%%%%%%%%%%%%%%%%%%%%%%%%%%%%%%%%%%%%%%%",
"%%%%%$@$$%%%%%%%%%%%%$@$$%%%%%%%%%%%%$@$$%%%%%%%",
"$%$$@#$#@$$$@$@$$%$$@#$#@$$$@$@$$%$$@#$#@$$$@$@$",
"@$$$$@@@$$$@#$#$@$$$$@@@$$$@#$#$@$$$$@@@$$$@#$#$",
"%@$$$$$$$$$$$@@@%@$$$$$$$$$$$@@@%@$$$$$$$$$$$@@@",
"@@$$$$$$$@$$$$$@@@$$$$$$$@$$$$$@@@$$$$$$$@$$$$$@",
"$$$$$$$$@$@$$$$$$$$$$$$$@$@$$$$$$$$$$$$$@$@$$$$$",
"$$$$$$$@#$#@$$$$$$$$$$      $$$$$$$$$$$@#$#@$$$$",
"$$$$@$$$$$$$$$$$$$$$@ oOOOo. $$$$$$$@$$$$$$$$$$$",
"$$$@%@$$@$$$$$$$$$$@ oOOOOOoo $$$$$@%@$$@$$$$$$$",
"$$@#$#$@$@$$$$$$$$@ oOOOOOooo $$$$@#$#$@$@$$$$$$",
"%$$@@@@#$#@$%%%%%$$ OOOOOoOooo %%$$@@@@#$#@$%%%%",
"%%%%%%%%%%%%%%%    .OOOOoOoooo %%%%%%%%%%%%%%%%%",
"%%%%%$@$$%%%%% oOOOO.oOoOoooo. %%%%%%$@$$%%%%%%%",
"%%%%$@%@$$%$$ oOOOOOO.oooooo...  %%%$@%@$$%$$@$$",
"@$$$$@@@$$$@ oOOOOOOOO.oooo.oOOOo $$$@@@$$$@#$#$",
"%@$$$$$$$$$$ ooOOOOOOO.ooo.oOOOOOo $$$$$$$$$$@@@",
"$#@$$$$$$$$$ oOoOoOOOo.....OOOOOoo. $$$$$$$$$$@#",
"$$$$$$$$@$@$ .oOoOoOo. ...oOOOOoOoo $$$$@$@$$$$$",
"$$$$$$$@#$#@$ .ooo.o.     ooOOoOooo $$$@#$#@$$$$",
"$$$$$$$$@@@$$$ ..... $ .. .ooooooo. $$$$@@@$$$$$",
"$$$$@$$$$$$$$$$     . ...  .o.o.o. $@$$$$$$$$$$$",
"$$@#$#$@$@$$$$$$$$ X++..X.  .o.o. @#$#$@$@$$$$$$",
"%$$@@@@#$#@$%%%%%$$ .+XX++X.     $$@@@@#$#@$%%%%",
"%%%%%$$@@@$%%%%%%%%% X+++X  %%%%%%%%%$$@@@$%%%%%",
"%%%%%$@$$%%%%%%%%%%%% X++ %%%%%%%%%%%$@$$%%%%%%%",
"%%%%$@%@$$%$$@$$%%%%$ X+X %$$@$$%%%%$@%@$$%$$@$$",
"$%$$@#$#@$$$@$@$$%$$@ X+X $$@$@$$%$$@#$#@$$$@$@$",
"@$$$$@@@$$$@#$#$@$$$$ X+X $@#$#$@$$$$@@@$$$@#$#$",
"$#@$$$$$$$$$$$@#$#@$$ ++X $$$$@#$#@$$$$$$$$$$$@#",
"@@$$$$$$$@$$$$$@@@$$ X+XX+ $$$$@@@$$$$$$$@$$$$$@",
"$$$$$$$$@$@$$$$$$$$ +XXX+X+ $$$$$$$$$$$$@$@$$$$$",
"$$$$$$$$@@@$$$$$$$$$   X+  $$$$$$$$$$$$$@@@$$$$$",
"$$$$@$$$$$$$$$$$$$$$@$$  $$$$$$$$$$$@$$$$$$$$$$$",
"$$$@%@$$@$$$$$$$$$$@%@$$@$$$$$$$$$$@%@$$@$$$$$$$",
"%$$@@@@#$#@$%%%%%$$@@@@#$#@$%%%%%$$@@@@#$#@$%%%%",
"%%%%%$$@@@$%%%%%%%%%%$$@@@$%%%%%%%%%%$$@@@$%%%%%"
};
