/* XPM */
static char *pokeball_map[] = {
/* columns rows colors chars-per-pixel */
"48 48 14 1 ",
"  c black",
". c #503030",
"X c #404038",
"o c #407860",
"O c #983830",
"+ c #D06050",
"@ c #408060",
"# c #488068",
"$ c #48E888",
"% c #48E098",
"& c #50E890",
"* c #68E8A0",
"= c #888890",
"- c #F0F0F8",
/* pixels */
"$&&*&&$&&****&$*$&&*&&$&&****&$*$&&*&&$&&*****&$",
"%$&&&$&$&&*&&$%&%$&&&$&$&&*&&$%&%$&&&$&$&&*&&&$*",
"$&&&$%&%&$&&&&$$$&&&$%&%&$&&&&$$$&&&$%&%&$&&&&$$",
"&&&&&&&$%&%$&&&&&&&&&&&$%&%$&&&&&&&&&&&$%&%$&&&&",
"&&$&&&&&$$$&&&&&&&$&&&&&$$$&&&&&&&$&&&&&$$$&&&&&",
"&$&$&&&&&&&&&&&&&$&$&&&&&&&&&&&&&$&$&&&&&&&&&&&&",
"&$$$&&&&&&&&&&&&&$$$&&&&&&&&&&&&&$$$&&&&&&&&&&&&",
"&&&&&&&&&&&&&$&&&&&&&&&&&&&&&$&&&&&&&&&&&&&&&&&&",
"&$&&&&&&&&&&$*$&&$&&&&&&&&&&$*$&&$&&&&&&&&&&$$&&",
"$&$&&&&&&&&$%&%&$&$&&&&&&&&$%&%&$&$&&&&&&&&$%&%&",
"$$$&**********&&$$$&**********&&$$$&*********$$$",
"**********************************************&&",
"&&************&$&&************&$&&************&$",
"%$&&&$&$&&*&&$%&%$&&&$&$&&*&&$%&%$&&&$&$&&*&&&$*",
"$&&&$%&%&$&&&&$$$&&&$%&%&$&&&&$$$&&&$%&%&$&&&$%&",
"&&&&&&$$$*$&&&&&&&&&&&$$$*$&&&&&&&&&&&$$$*$&&&$$",
"&&$&&&&&$$$&&&&&&&$&&&&&$$$&&&&&&&$&&&&&$$$&&&&&",
"&$&$&&&&&&&&&&&&&$&$&&&&&&&&&&&&&$&$&&&&&&&&&&&&",
"$%&%$&&&&&&&&&&&$%&%$&&&&&&&&&&&$%&%$&&&&&&&&&&&",
"&$$$&&&&&&&&&&&&&$$$&&&&&&&&&&&&&$$$&&&&&&&&&&&&",
"&$&&&&&&&&&&$*$&&$&&&&&&&&&&$*$&&$&&&&&&&&&&$$&&",
"$&$&&&&&&&&$%&%&$&$&&&&&&&&$%&%&$&$&&&&&&&&$%*$&",
"%&%$&*****&&$$$$%&%$&*****&&$$$$%&%$&*****&&$$$$",
"**********************************************&&",
"&&************&$&&************&$&&**************",
"$&&*&&$&&****&$*$&&*&&$&&****&$*$&&*&&$&&*****&$",
"%$&&&%&%&$&&&&$$$&&&$%&%&$&&&&$$$&&&$%&%&$&&&$%&",
"&&&&&&$$$*$&&&&&&&&&&&$$$*$&&&&&&&&&&&$$$*$&&&$$",
"&&&&&&&$%&%$&&&&&&&&&&&$%&%$&&&&&&&&&&&$%&%$&&&&",
"&&$&&&&&$$$&&&&&&$%&%$&&&&&&&&&&&$$&&&&&$$$&&&&&",
"$%&%$&&&&&&&&$&&&&&&&&&&&&&$&$&&&&&%$&&&&&&&&&&&",
"&$$$&&&&&&&&&%$&&&&&&&&&&&$%&%$&&&$$&&&&&&&&&&&&",
"&&&&&&&&&&&&&$&&&&&&&....&&$$$&&&&&&&&&&&&&&&&&&",
"$&$&&&&&&&&$%&&&&&&&.+++O.&$&&&&&&$&&&&&&&&$%*$&",
"%&%$&*****&&$&&&&&&.+-+++O.&$&&&&&%$&*****&&$&%&",
"$$$&*********$&***.OO+++OOO.%$&***$&*********$$$",
"*************&**** OOOXXOOO $&******************",
"$&&*&&$&&********# XOX-= OX ##****&*&&$&&*****&$",
"%$&&&$&$&&*&&*&&@@ -X == X= @#@&$&&&&$&$&&*&&&$*",
"$&&&$%&%&$&&&&&@@@@ --  == @@@@@&$&&$%&%&$&&&&$$",
"&&&&&&&$%&%$&&&@@@@# ==== @@@@@@$$&&&&&$%&%$&&&&",
"&&$&&&&&$$$&&&&@@@o@o    @@@@@@@&$$&&&&&$$$&&&&&",
"&$&$&&&&&&&&&&&&@@@@@@@@@@@@@@@&&&&$&&&&&&&&&&&&",
"$%&%$&&&&&&&&%$&&@@@@@@@@@@o@o$&&&$$&&&&&&&&&&&&",
"&&&&&&&&&&&&&$&&&&&&@@@@@@@$$$&&&&&&&&&&&&&&&&&&",
"&$&&&&&&&&&&$&&&&&&&&&&$&&&&&&&&&&&&&&&&&&&&$$&&",
"$&$&&&&&&&&$%&&&&&&&&&$*$&&$&&&&&&$&&&&&&&&$%&%&",
"$&$&&&&&&&&$%&&&&&&&&&$*$&&$&&&&&&$&&&&&&&&$%&%&"
};
