/* XPM */
static char *pokeball[] = {
/* columns rows colors chars-per-pixel */
"22 22 11 1 ",
"  c #383828",
". c #686860",
"X c #B81800",
"o c #D81800",
"O c #F81800",
"+ c #F86050",
"@ c #A0A0A0",
"# c #F8B0A8",
"$ c #C8C8C8",
"% c #F8F8F8",
"& c #000000",
/* pixels */
"&&&&&&&&      &&&&&&&&",
"&&&&&&  XooooX  &&&&&&",
"&&&&  o++OOOOOoX  &&&&",
"&&& Xo+##+OOOOOOoX &&&",
"&& XoO#%%#OOOOOOOoX &&",
"&& oOO+##+OOOOOOOoo &&",
"& XOOOO++OOOOOOOOOoX &",
"& XOOOOOOX@..XOOOOoX &",
" XXoOOOOX@%%@.XOOOoXX ",
" XXXOOOX@%$$%@ OOOoXX ",
"   ... .%$%%@% ...    ",
"       .%$%$@$        ",
" @$%%%$ @$@@$@.@@@@@. ",
" @$%%%$$.@$$@ @@@@@@. ",
"& @$%%%$$.  .@@@@@@@ &",
"& @@@$$$$@@@@@@@@@@@ &",
"&& @@@@@@@@@@@@@@@@ &&",
"&& .@@@@@@@@@@@@@@. &&",
"&&& .@@@@@@@@@@@@. &&&",
"&&&&  @@@@@@@@@@  &&&&",
"&&&&&&  @@@@@@  &&&&&&",
"&&&&&&&&      &&&&&&&&"
};
