/* XPM */
static char *tree[] = {
/* columns rows colors chars-per-pixel */
"48 48 20 1 ",
"  c #303020",
". c #384028",
"X c #485038",
"o c #505838",
"O c #506838",
"+ c #585040",
"@ c #587048",
"# c #706040",
"$ c #887048",
"% c #608830",
"& c #78A028",
"* c #38B068",
"= c #38C070",
"- c #38D070",
"; c #90C038",
": c #40E880",
"> c #48E888",
", c #48E098",
"< c #50E890",
"1 c #68E8A0",
/* pixels */
"<<<>,<,><<<<<<<<<<<>,<XXXX<<<<<<<<<>,<,><<<<<<<<",
"><<<<<<<<<<<<<<<><<<XX&&&&XX<<<<><<<<<<<<<<<<<<<",
"1><<><<<<<<<<<<>1><X&&&;;&&&X<<>1><<><<<<<<<<<<>",
"<,<><><<<<<<<<>,<XX&&;;;;;;&&XX,<,<><><<<<<<<<>,",
"1<<>>><111111111X%%&;;;;;;;;&%%XX<<>>><111111111",
"111111111111111X%%&&;;;;;;;;&&%%XX11111111111111",
"1<><<111111111XX%&&;;;;;;;;;;&&%X%XX<11111111111",
"<>1><<1<<><<1X%%O&&;;;;;;;;;;&&O%%%%X<1<<><<1111",
"<>>><<<>,<,<X%%%O&&;;;;;;;;;;&&o%%%%%X<>,<,<><<<",
"<<<<<<<<<>>>XO%O&&&&;;;;;;;;&&&&o%%%OX<<<>>>1><<",
"<<<<<<<<<<>X%%%O&&&&;;;;;;;;&&&&o%%%%%X<<<>,<,><",
"<<<<><><<<X%%%OOO&&&&;;&&;;&&&&oO%OO%%%X<<<<<<<<",
"<<<>,<,><<X%%OXOOOO&&&&&&&&&&oOO%%OXO%%X<<<<<<<<",
"><<<<<<<.XOO%OO%%O%&&&&&&&&&&%o%%%%OO%OOX<<<<<<<",
"1><<><<.XXOO%%%%%o%%&&&OO&&&%%o%%%%%%%OOX.<<<<<<",
"<,<><><.X.OOO%%%%Oo%%%oOOo%%%oO%%%%%%OOO..<<<<>,",
">>>,<,.XX.OOOOOO%%OoooOOOOoooO%%%%OOOOOO.O.11<<>",
"111111.XXX.OOOO%&&%OOOOOOOOOO%%%&&%OOOO.OO.11111",
"1<><<11.XOXXOX%&;&%%%OOO%%OOO%%%&;&%XOXXOO.11111",
"<>1><<1.OOXX.O%&&%%%%OO%%%%OO%%%%&&%O.XOO.<<1111",
"<>>><<<.OOXX.OO%%%%%OO%%%%%%OO%%%%%OO.XOO.><<1<<",
"<<<<<<.XXOOX.XOO%%OOOO%%%%%%OOOO%%OOX.XOO.>>1><<",
"<<<<<<.OOOOO.XXOOOOXXOO%%%%OOXXOOOOXX.OOOO.,<,><",
"<<<<< OO%%OOX.XXXXXXXXOO%%OOXXXXXXXX.XO%%OO >><<",
"<<<>, O%&%OOXX.XXXXXXXXOOOOXXXXXXXX.XOO%&%O <<<<",
"<<<<> O%%OOOOXX..XXX.XXXXXXXX.XXX..XOOOO%%O <<<<",
"><<<< XOOOOOOOXXXXXXX..XXXX..XXXXXXOOOOOOOX <<<<",
"<,<>< XXOOXOOOOXXXXXXXX....XXXXXXXOOOOXOOXX <<<>",
">>>,<, XXXOOOOOOOXXXXXXXXXXXXXXXOOOOOOOXXX 11<<>",
"1<<>>> XXXOOOOXXOOXXXXXXXXXXXXXOOXXOOOOXXX 11111",
"1<><<11 XX.OOX.XOOXOXOXXOXXOXOXOOX.XOO.XX 111111",
"<>1><<1< .XOOXXOOXXXOXOOOOOXOXXXOOXXOOX. 1111111",
">,<,><<<< XXOOOOXXXOXOOOOOOOXOXXXOOOOXX ><><<1<<",
"<>>><<<>< XXXXXXX..XOOOOOOOOOX..XXXXXXX ,<,<><<<",
"<<<<<<<<-- XXXXX...XXOOOOOOOXX...XXXXX <<>>>1><<",
"<<<<<><<--* XX.X..XXXXOOOOOXXXX..X.XX <<<<<>>><<",
"<<<<><><-=*@   XXX.XXXXXOXXXXX.XXX   @><<<<<<<<<",
"<<<<>>><-=@@@XX    XXXXXXXXXXX    XX@@@><<<<<<<<",
"><<<<<<<-=@@@XX +$# XXXXXXXXX #$+ XX@@@<<<<<<<<<",
"1><<><<<-=@@@XX +$#$  XXXXX  $#$+ XX@@@<<<<<<<<>",
"<,<><><<-=@@@X +++$$$$$###$$$$$+++ X@@@<<<<<<<>,",
"1<<>>><1--*@@@X   #$$$#####$$$#   X@@@><11111<<>",
"11111111:-=@@@XXX #####+++##### XXX@@@1111111111",
"1<><<111<--@@@@XXX ###+++++### XXX@@@@1111111111",
">,<,><<<<:-<1@@@@@X   XXXXX   X@@@@@<<1<<><<1111",
"<>>><<<><<-<><@@@@@@XXXXXXXXX@@@@@@><<<>,<,<><<<",
"<<<<<<<<<<:>1><@@@@@@@@@@@@@@@@@@@<<<<<<<>>>1><<",
"<<<<<<<<<<>,<,><<@@@@@@@@@@@@@@@<<<<<<<<<<>,<,><"
};
