/* XPM */
static char *barrel_xpm[] = {
"32 32 6 1",
"  c None",
". c #2F2F2F",
"+ c #4A2E12",
"@ c #633E1A",
"# c #7D4F22",
"$ c #1A1A1A",
"          ........              ",
"       ...########...           ",
"      .##############.          ",
"     .################.         ",
"    .##################.        ",
"    .##################.        ",
"   .$$$$$$$$$$$$$$$$$$$$.       ",
"   .$$$$$$$$$$$$$$$$$$$$.       ",
"   .@@@@####@@@@####@@@@.       ",
"  .@@@@@####@@@@####@@@@@.      ",
"  .####@@@@####@@@@####@@.      ",
"  .####@@@@####@@@@####@@.      ",
"  .@@@@####@@@@####@@@@##.      ",
"  .@@@@####@@@@####@@@@##.      ",
"  .$$$$$$$$$$$$$$$$$$$$$$.      ",
"  .$$$$$$$$$$$$$$$$$$$$$$.      ",
"  .####@@@@####@@@@####@@.      ",
"  .####@@@@####@@@@####@@.      ",
"  .@@@@####@@@@####@@@@##.      ",
"  .@@@@####@@@@####@@@@##.      ",
"  .####@@@@####@@@@####@@.      ",
"  .####@@@@####@@@@####@@.      ",
"   .$$$$$$$$$$$$$$$$$$$$.       ",
"   .$$$$$$$$$$$$$$$$$$$$.       ",
"   .@@@@####@@@@####@@@@.       ",
"    .@@@@####@@@@####@@.        ",
"    .####@@@@####@@@@##.        ",
"     .##############.           ",
"      .############.            ",
"       ..########..             ",
"         ........               ",
"                                "
};