/* XPM */
static char *m_back_right[] = {
"32 32 2 1",
"  c None",
". c #228B22",
"          .......               ",
"        ..........              ",
"      ............              ",
"     .............              ",
"    ..............              ",
"    ..............              ",
"    ..............              ",
"     .............              ",
"      ............              ",
"        ..........              ",
"          .......               ",
"                                ",
"                                ",
"                                ",
"                                ",
"                                ",
"                                ",
"                                ",
"                                ",
"                                ",
"                                ",
"                                ",
"                                ",
"                                ",
"                                ",
"                                ",
"                                ",
"                                ",
"                                ",
"                                ",
"                                ",
"                                "
};