/* XPM */
static char *m_back_left[] = {
"32 32 2 1",
"  c None",
". c #228B22",
"               .......          ",
"              ..........        ",
"              ............      ",
"              .............     ",
"              ..............    ",
"              ..............    ",
"              ..............    ",
"              .............     ",
"              ............      ",
"              ..........        ",
"               .......          ",
"                                ",
"                                ",
"                                ",
"                                ",
"                                ",
"                                ",
"                                ",
"                                ",
"                                ",
"                                ",
"                                ",
"                                ",
"                                ",
"                                ",
"                                ",
"                                ",
"                                ",
"                                ",
"                                ",
"                                ",
"                                "
};