/* XPM */
static char *m_front_left_xpm[] = {
"32 32 5 1",
"  c None",        /* 透明部分 */
". c #000000",     /* 黑色轮廓 */
"+ c #FF0000",     /* 怪物主体颜色（红） */
"@ c #FFFFFF",     /* 眼睛/高光 */
"# c #555555",     /* 阴影 */
"                                ",
"          ..........            ",
"        ..++++++++++..          ",
"       .++++++++++++++#..       ",
"      .+++++++++++++++++#.      ",
"     .+++++++++++++++++++#.     ",
"    .++@++++++@++++++++++#.     ",
"    .++@++++++@++++++++++#.     ",
"    .++@++++++@++++++++++#.     ",
"    .+++++++++++++++++++##.     ",
"     .+++++++++++++++++##.      ",
"      ..+++++++++++++##..       ",
"        ..+++++++++##..         ",
"          .+++++++#.            ",
"          .+++++++#.            ",
"        ...+++++++#...          ",
"       .+++.+++++#.###.         ",
"      .++++.+++++#.####.        ",
"      .++++.+++++#.####.        ",
"      .++++.+++++#.####.        ",
"      .++++.++++++..###.        ",
"       .... .++++.  ...         ",
"            .++++.              ",
"            .++++.              ",
"           ..++++..             ",
"          .++.  .+#.            ",
"         .+++.  .++#.           ",
"        .++++.  .+++#.          ",
"        .++++.  .+++#.          ",
"        ......  ......          ",
"                                ",
"                                "
};