/* XPM */
static char *m_left[] = {
"32 32 4 1",
"  c None",
". c #228B22",
"@ c #0000FF",
"# c #FFFFFF",
"               .......          ",
"              .#######..        ",
"              .#########..      ",
"              .#######..@@.     ",
"              .#######.@@@@.    ",
"              .######.@@@@@.    ",
"              .######.@@@@@.    ",
"              .######.@@@@@.    ",
"              .######.@@@@@.    ",
"              .######.@@@@.     ",
"              .######..@@.      ",
"              .#######..        ",
"               .......          ",
"                                ",
"                                ",
"                                ",
"                                ",
"                                ",
"                                ",
"                                ",
"                                ",
"                                ",
"                                ",
"                                ",
"                                ",
"                                ",
"                                ",
"                                ",
"                                ",
"                                ",
"                                ",
"                                "
};