/* XPM */
static char *torch_0[] = {
"32 32 5 1",
"  c None",
". c #2F2F2F", /* 木杆 */
"+ c #FF4500", /* 深橘红 */
"@ c #FFD700", /* 金黄 */
"# c #FFFFFF", /* 核心白 */
"              @@                ",
"             @##@               ",
"             @##@               ",
"            @+##+@              ",
"            @+##+@              ",
"             @++@               ",
"              @@                ",
"              ..                ",
"              ..                ",
"              ..                ",
"              ..                ",
"              ..                ",
"              ..                ",
"              ..                ",
"              ..                ",
"              ..                ",
"              ..                ",
"              ..                ",
"              ..                ",
"              ..                ",
"              ..                ",
"              ..                ",
"              ..                ",
"              ..                ",
"              ..                ",
"              ..                ",
"              ..                ",
"              ..                ",
"              ..                ",
"              ..                ",
"              ..                ",
"              ..                "};