/* XPM */
static char *torch_3[] = {
"32 32 5 1",
"  c None",
". c #2F2F2F",
"+ c #FF4500",
"@ c #FFD700",
"# c #FFFFFF",
"                @@              ",
"               @##@             ",
"               @##@             ",
"              @+##+@            ",
"               @++@             ",
"                @@              ",
"              ..                ",
"              ..                ",
"              ..                ",
"              ..                ",
"              ..                ",
"              ..                ",
"              ..                ",
"              ..                ",
"              ..                ",
"              ..                ",
"              ..                ",
"              ..                ",
"              ..                ",
"              ..                ",
"              ..                ",
"              ..                ",
"              ..                ",
"              ..                ",
"              ..                ",
"              ..                ",
"              ..                ",
"              ..                ",
"              ..                ",
"              ..                ",
"              ..                ",
"              ..                "};