/* XPM */
static char *tree_xpm[] = {
"32 32 5 1",
"  c None",
". c #228B22",
"X c #006400",
"o c #8B4513",
"O c #A0522D",
"                                ",
"           ......               ",
"        ..........              ",
"       ...XXXXXX...             ",
"      ..XXXXXXXXXX..            ",
"     ..XXXXXXXXXXXX..           ",
"     .XXXXXXXXXXXXXX.           ",
"     .XXXXXXXXXXXXXX.           ",
"    ..XXXXXXXXXXXXXX..          ",
"    .XXXXXXXXXXXXXXXX.          ",
"    .XXXXXXXXXXXXXXXX.          ",
"    .XXXXXX....XXXXXX.          ",
"    .XXXX........XXXX.          ",
"     .XX..........XX.           ",
"     ....XXXXXXXX....           ",
"      ....XXXXXX....            ",
"       .....XX.....             ",
"        ....XX....              ",
"          ..XX..                ",
"            oo                  ",
"            oo                  ",
"           oOOo                 ",
"           oOOo                 ",
"           oOOo                 ",
"           oOOo                 ",
"           oOOo                 ",
"          oOOOOo                ",
"         oOOOOOOo               ",
"        oooooooooo              ",
"       oooooooooooo             ",
"                                ",
"                                "
};